<svg id="visual" viewBox="0 0 960 540" width="960" height="540" xmlns="http://www.w3.org/2000/svg" xmlns:xlink="http://www.w3.org/1999/xlink" version="1.1"><rect x="0" y="0" width="960" height="540" fill="#a3c3da"></rect><defs><linearGradient id="grad1_0" x1="43.8%" y1="0%" x2="100%" y2="100%"><stop offset="14.444444444444446%" stop-color="#ffffff" stop-opacity="1"></stop><stop offset="85.55555555555554%" stop-color="#ffffff" stop-opacity="1"></stop></linearGradient></defs><defs><linearGradient id="grad1_1" x1="43.8%" y1="0%" x2="100%" y2="100%"><stop offset="14.444444444444446%" stop-color="#ffffff" stop-opacity="1"></stop><stop offset="85.55555555555554%" stop-color="#e1ebf3" stop-opacity="1"></stop></linearGradient></defs><defs><linearGradient id="grad1_2" x1="43.8%" y1="0%" x2="100%" y2="100%"><stop offset="14.444444444444446%" stop-color="#c2d7e6" stop-opacity="1"></stop><stop offset="85.55555555555554%" stop-color="#e1ebf3" stop-opacity="1"></stop></linearGradient></defs><defs><linearGradient id="grad1_3" x1="43.8%" y1="0%" x2="100%" y2="100%"><stop offset="14.444444444444446%" stop-color="#c2d7e6" stop-opacity="1"></stop><stop offset="85.55555555555554%" stop-color="#a3c3da" stop-opacity="1"></stop></linearGradient></defs><defs><linearGradient id="grad2_0" x1="0%" y1="0%" x2="56.3%" y2="100%"><stop offset="14.444444444444446%" stop-color="#ffffff" stop-opacity="1"></stop><stop offset="85.55555555555554%" stop-color="#ffffff" stop-opacity="1"></stop></linearGradient></defs><defs><linearGradient id="grad2_1" x1="0%" y1="0%" x2="56.3%" y2="100%"><stop offset="14.444444444444446%" stop-color="#e1ebf3" stop-opacity="1"></stop><stop offset="85.55555555555554%" stop-color="#ffffff" stop-opacity="1"></stop></linearGradient></defs><defs><linearGradient id="grad2_2" x1="0%" y1="0%" x2="56.3%" y2="100%"><stop offset="14.444444444444446%" stop-color="#e1ebf3" stop-opacity="1"></stop><stop offset="85.55555555555554%" stop-color="#c2d7e6" stop-opacity="1"></stop></linearGradient></defs><defs><linearGradient id="grad2_3" x1="0%" y1="0%" x2="56.3%" y2="100%"><stop offset="14.444444444444446%" stop-color="#a3c3da" stop-opacity="1"></stop><stop offset="85.55555555555554%" stop-color="#c2d7e6" stop-opacity="1"></stop></linearGradient></defs><g transform="translate(960, 0)"><path d="M0 405C-52.5 398.8 -105 392.6 -155 374.2C-205 355.8 -252.6 325.2 -285 285C-317.3 244.7 -334.5 194.9 -352 145.8C-369.5 96.7 -387.2 48.4 -405 0L0 0Z" fill="#b3cde0"></path><path d="M0 303.8C-39.4 299.1 -78.7 294.4 -116.2 280.6C-153.8 266.8 -189.4 243.9 -213.7 213.7C-238 183.6 -250.9 146.2 -264 109.4C-277.1 72.5 -290.4 36.3 -303.7 0L0 0Z" fill="#d1e1ec"></path><path d="M0 202.5C-26.2 199.4 -52.5 196.3 -77.5 187.1C-102.5 177.9 -126.3 162.6 -142.5 142.5C-158.7 122.4 -167.3 97.5 -176 72.9C-184.7 48.4 -193.6 24.2 -202.5 0L0 0Z" fill="#f0f5f9"></path><path d="M0 101.3C-13.1 99.7 -26.2 98.1 -38.7 93.5C-51.3 88.9 -63.1 81.3 -71.2 71.2C-79.3 61.2 -83.6 48.7 -88 36.5C-92.4 24.2 -96.8 12.1 -101.2 0L0 0Z" fill="#ffffff"></path></g><g transform="translate(0, 540)"><path d="M0 -405C48.8 -384.5 97.6 -364 141.6 -341.8C185.5 -319.6 224.6 -295.7 265.9 -265.9C307.1 -236 350.6 -200.3 374.2 -155C397.7 -109.7 401.4 -54.8 405 0L0 0Z" fill="#b3cde0"></path><path d="M0 -303.7C36.6 -288.4 73.2 -273 106.2 -256.4C139.2 -239.7 168.5 -221.8 199.4 -199.4C230.4 -177 263 -150.2 280.6 -116.2C298.3 -82.3 301 -41.1 303.8 0L0 0Z" fill="#d1e1ec"></path><path d="M0 -202.5C24.4 -192.3 48.8 -182 70.8 -170.9C92.8 -159.8 112.3 -147.9 132.9 -132.9C153.6 -118 175.3 -100.1 187.1 -77.5C198.9 -54.8 200.7 -27.4 202.5 0L0 0Z" fill="#f0f5f9"></path><path d="M0 -101.2C12.2 -96.1 24.4 -91 35.4 -85.5C46.4 -79.9 56.2 -73.9 66.5 -66.5C76.8 -59 87.7 -50.1 93.5 -38.7C99.4 -27.4 100.3 -13.7 101.3 0L0 0Z" fill="#ffffff"></path></g></svg>