<svg id="visual" viewBox="0 0 960 540" width="960" height="540" xmlns="http://www.w3.org/2000/svg" xmlns:xlink="http://www.w3.org/1999/xlink" version="1.1"><rect x="0" y="0" width="960" height="540" fill="#a3c3da"></rect><defs><linearGradient id="grad1_0" x1="43.8%" y1="0%" x2="100%" y2="100%"><stop offset="14.444444444444446%" stop-color="#ffffff" stop-opacity="1"></stop><stop offset="85.55555555555554%" stop-color="#ffffff" stop-opacity="1"></stop></linearGradient></defs><defs><linearGradient id="grad1_1" x1="43.8%" y1="0%" x2="100%" y2="100%"><stop offset="14.444444444444446%" stop-color="#ffffff" stop-opacity="1"></stop><stop offset="85.55555555555554%" stop-color="#e1ebf3" stop-opacity="1"></stop></linearGradient></defs><defs><linearGradient id="grad1_2" x1="43.8%" y1="0%" x2="100%" y2="100%"><stop offset="14.444444444444446%" stop-color="#c2d7e6" stop-opacity="1"></stop><stop offset="85.55555555555554%" stop-color="#e1ebf3" stop-opacity="1"></stop></linearGradient></defs><defs><linearGradient id="grad1_3" x1="43.8%" y1="0%" x2="100%" y2="100%"><stop offset="14.444444444444446%" stop-color="#c2d7e6" stop-opacity="1"></stop><stop offset="85.55555555555554%" stop-color="#a3c3da" stop-opacity="1"></stop></linearGradient></defs><defs><linearGradient id="grad2_0" x1="0%" y1="0%" x2="56.3%" y2="100%"><stop offset="14.444444444444446%" stop-color="#ffffff" stop-opacity="1"></stop><stop offset="85.55555555555554%" stop-color="#ffffff" stop-opacity="1"></stop></linearGradient></defs><defs><linearGradient id="grad2_1" x1="0%" y1="0%" x2="56.3%" y2="100%"><stop offset="14.444444444444446%" stop-color="#e1ebf3" stop-opacity="1"></stop><stop offset="85.55555555555554%" stop-color="#ffffff" stop-opacity="1"></stop></linearGradient></defs><defs><linearGradient id="grad2_2" x1="0%" y1="0%" x2="56.3%" y2="100%"><stop offset="14.444444444444446%" stop-color="#e1ebf3" stop-opacity="1"></stop><stop offset="85.55555555555554%" stop-color="#c2d7e6" stop-opacity="1"></stop></linearGradient></defs><defs><linearGradient id="grad2_3" x1="0%" y1="0%" x2="56.3%" y2="100%"><stop offset="14.444444444444446%" stop-color="#a3c3da" stop-opacity="1"></stop><stop offset="85.55555555555554%" stop-color="#c2d7e6" stop-opacity="1"></stop></linearGradient></defs><g transform="translate(960, 0)"><path d="M0 378C-46.7 359.3 -93.4 340.7 -131.3 316.9C-169.1 293.1 -198.1 264.2 -236.9 236.9C-275.6 209.6 -324.1 183.9 -349.2 144.7C-374.4 105.4 -376.2 52.7 -378 0L0 0Z" fill="#b3cde0"></path><path d="M0 283.5C-35 269.5 -70.1 255.5 -98.4 237.7C-126.8 219.8 -148.6 198.1 -177.7 177.7C-206.7 157.2 -243.1 137.9 -261.9 108.5C-280.8 79.1 -282.1 39.5 -283.5 0L0 0Z" fill="#d1e1ec"></path><path d="M0 189C-23.4 179.7 -46.7 170.3 -65.6 158.4C-84.6 146.6 -99.1 132.1 -118.4 118.4C-137.8 104.8 -162 91.9 -174.6 72.3C-187.2 52.7 -188.1 26.4 -189 0L0 0Z" fill="#f0f5f9"></path><path d="M0 94.5C-11.7 89.8 -23.4 85.2 -32.8 79.2C-42.3 73.3 -49.5 66 -59.2 59.2C-68.9 52.4 -81 46 -87.3 36.2C-93.6 26.4 -94 13.2 -94.5 0L0 0Z" fill="#ffffff"></path></g><g transform="translate(0, 540)"><path d="M0 -378C50.5 -374.4 101.1 -370.8 144.7 -349.2C188.2 -327.7 224.8 -288.1 247.5 -247.5C270.2 -206.8 279 -165 298.4 -123.6C317.9 -82.2 347.9 -41.1 378 0L0 0Z" fill="#b3cde0"></path><path d="M0 -283.5C37.9 -280.8 75.8 -278.1 108.5 -261.9C141.2 -245.7 168.6 -216.1 185.6 -185.6C202.6 -155.1 209.2 -123.8 223.8 -92.7C238.4 -61.6 260.9 -30.8 283.5 0L0 0Z" fill="#d1e1ec"></path><path d="M0 -189C25.3 -187.2 50.5 -185.4 72.3 -174.6C94.1 -163.8 112.4 -144.1 123.7 -123.7C135.1 -103.4 139.5 -82.5 149.2 -61.8C158.9 -41.1 174 -20.5 189 0L0 0Z" fill="#f0f5f9"></path><path d="M0 -94.5C12.6 -93.6 25.3 -92.7 36.2 -87.3C47.1 -81.9 56.2 -72 61.9 -61.9C67.5 -51.7 69.7 -41.3 74.6 -30.9C79.5 -20.5 87 -10.3 94.5 0L0 0Z" fill="#ffffff"></path></g></svg>