<svg id="visual" viewBox="0 0 960 540" width="960" height="540" xmlns="http://www.w3.org/2000/svg" xmlns:xlink="http://www.w3.org/1999/xlink" version="1.1"><g stroke-width="1" stroke-linejoin="bevel"><path d="M517 374L369 238L447 398Z" fill="#246ec7" stroke="#246ec7"></path><path d="M517 374L626 119L369 238Z" fill="#7ac9ef" stroke="#7ac9ef"></path><path d="M201 417L346 540L447 398Z" fill="#7ac9ef" stroke="#7ac9ef"></path><path d="M447 398L626 540L517 374Z" fill="#246ec7" stroke="#246ec7"></path><path d="M369 238L201 417L447 398Z" fill="#2f8ed8" stroke="#2f8ed8"></path><path d="M346 540L626 540L447 398Z" fill="#246ec7" stroke="#246ec7"></path><path d="M517 374L750 198L626 119Z" fill="#3998dd" stroke="#3998dd"></path><path d="M626 119L407 0L369 238Z" fill="#50ace5" stroke="#50ace5"></path><path d="M369 238L143 140L201 417Z" fill="#2479cd" stroke="#2479cd"></path><path d="M766 372L750 198L517 374Z" fill="#246ec7" stroke="#246ec7"></path><path d="M626 540L766 372L517 374Z" fill="#246ec7" stroke="#246ec7"></path><path d="M719 0L605 0L626 119Z" fill="#5eb6e8" stroke="#5eb6e8"></path><path d="M626 119L605 0L407 0Z" fill="#2883d3" stroke="#2883d3"></path><path d="M250 0L143 140L369 238Z" fill="#5eb6e8" stroke="#5eb6e8"></path><path d="M201 417L203 540L346 540Z" fill="#246ec7" stroke="#246ec7"></path><path d="M0 540L203 540L201 417Z" fill="#7ac9ef" stroke="#7ac9ef"></path><path d="M407 0L250 0L369 238Z" fill="#89d3f3" stroke="#89d3f3"></path><path d="M626 540L722 540L766 372Z" fill="#7ac9ef" stroke="#7ac9ef"></path><path d="M750 198L719 0L626 119Z" fill="#6cc0ec" stroke="#6cc0ec"></path><path d="M143 140L0 350L201 417Z" fill="#7ac9ef" stroke="#7ac9ef"></path><path d="M0 0L0 212L143 140Z" fill="#5eb6e8" stroke="#5eb6e8"></path><path d="M143 140L0 212L0 350Z" fill="#50ace5" stroke="#50ace5"></path><path d="M766 372L960 361L750 198Z" fill="#5eb6e8" stroke="#5eb6e8"></path><path d="M750 198L960 0L719 0Z" fill="#2479cd" stroke="#2479cd"></path><path d="M960 540L960 361L766 372Z" fill="#6cc0ec" stroke="#6cc0ec"></path><path d="M0 350L0 540L201 417Z" fill="#7ac9ef" stroke="#7ac9ef"></path><path d="M960 361L960 172L750 198Z" fill="#89d3f3" stroke="#89d3f3"></path><path d="M250 0L0 0L143 140Z" fill="#44a2e1" stroke="#44a2e1"></path><path d="M722 540L960 540L766 372Z" fill="#89d3f3" stroke="#89d3f3"></path><path d="M960 172L960 0L750 198Z" fill="#2883d3" stroke="#2883d3"></path></g></svg>