<svg id="visual" viewBox="0 0 960 540" width="960" height="540" xmlns="http://www.w3.org/2000/svg" xmlns:xlink="http://www.w3.org/1999/xlink" version="1.1"><rect x="0" y="0" width="960" height="540" fill="#fff"></rect><path d="M0 303L17.8 284C35.7 265 71.3 227 106.8 223C142.3 219 177.7 249 213.2 269.5C248.7 290 284.3 301 320 308C355.7 315 391.3 318 426.8 311.8C462.3 305.7 497.7 290.3 533.2 287.8C568.7 285.3 604.3 295.7 640 297.5C675.7 299.3 711.3 292.7 746.8 272C782.3 251.3 817.7 216.7 853.2 212.7C888.7 208.7 924.3 235.3 942.2 248.7L960 262L960 541L942.2 541C924.3 541 888.7 541 853.2 541C817.7 541 782.3 541 746.8 541C711.3 541 675.7 541 640 541C604.3 541 568.7 541 533.2 541C497.7 541 462.3 541 426.8 541C391.3 541 355.7 541 320 541C284.3 541 248.7 541 213.2 541C177.7 541 142.3 541 106.8 541C71.3 541 35.7 541 17.8 541L0 541Z" fill="#89d3f3"></path><path d="M0 302L17.8 309.7C35.7 317.3 71.3 332.7 106.8 336.3C142.3 340 177.7 332 213.2 328.7C248.7 325.3 284.3 326.7 320 316.5C355.7 306.3 391.3 284.7 426.8 283.7C462.3 282.7 497.7 302.3 533.2 309.3C568.7 316.3 604.3 310.7 640 313.8C675.7 317 711.3 329 746.8 320.5C782.3 312 817.7 283 853.2 276.3C888.7 269.7 924.3 285.3 942.2 293.2L960 301L960 541L942.2 541C924.3 541 888.7 541 853.2 541C817.7 541 782.3 541 746.8 541C711.3 541 675.7 541 640 541C604.3 541 568.7 541 533.2 541C497.7 541 462.3 541 426.8 541C391.3 541 355.7 541 320 541C284.3 541 248.7 541 213.2 541C177.7 541 142.3 541 106.8 541C71.3 541 35.7 541 17.8 541L0 541Z" fill="#65bbea"></path><path d="M0 381L17.8 387.5C35.7 394 71.3 407 106.8 408.2C142.3 409.3 177.7 398.7 213.2 387C248.7 375.3 284.3 362.7 320 349.8C355.7 337 391.3 324 426.8 321C462.3 318 497.7 325 533.2 327C568.7 329 604.3 326 640 325.7C675.7 325.3 711.3 327.7 746.8 339.7C782.3 351.7 817.7 373.3 853.2 375.7C888.7 378 924.3 361 942.2 352.5L960 344L960 541L942.2 541C924.3 541 888.7 541 853.2 541C817.7 541 782.3 541 746.8 541C711.3 541 675.7 541 640 541C604.3 541 568.7 541 533.2 541C497.7 541 462.3 541 426.8 541C391.3 541 355.7 541 320 541C284.3 541 248.7 541 213.2 541C177.7 541 142.3 541 106.8 541C71.3 541 35.7 541 17.8 541L0 541Z" fill="#44a2e1"></path><path d="M0 407L17.8 400.5C35.7 394 71.3 381 106.8 381.3C142.3 381.7 177.7 395.3 213.2 397.7C248.7 400 284.3 391 320 397.3C355.7 403.7 391.3 425.3 426.8 435.5C462.3 445.7 497.7 444.3 533.2 438C568.7 431.7 604.3 420.3 640 421.5C675.7 422.7 711.3 436.3 746.8 429.8C782.3 423.3 817.7 396.7 853.2 390.2C888.7 383.7 924.3 397.3 942.2 404.2L960 411L960 541L942.2 541C924.3 541 888.7 541 853.2 541C817.7 541 782.3 541 746.8 541C711.3 541 675.7 541 640 541C604.3 541 568.7 541 533.2 541C497.7 541 462.3 541 426.8 541C391.3 541 355.7 541 320 541C284.3 541 248.7 541 213.2 541C177.7 541 142.3 541 106.8 541C71.3 541 35.7 541 17.8 541L0 541Z" fill="#2b88d5"></path><path d="M0 460L17.8 460.5C35.7 461 71.3 462 106.8 469.7C142.3 477.3 177.7 491.7 213.2 495.5C248.7 499.3 284.3 492.7 320 489.2C355.7 485.7 391.3 485.3 426.8 476.3C462.3 467.3 497.7 449.7 533.2 447.5C568.7 445.3 604.3 458.7 640 470C675.7 481.3 711.3 490.7 746.8 490.5C782.3 490.3 817.7 480.7 853.2 480.7C888.7 480.7 924.3 490.3 942.2 495.2L960 500L960 541L942.2 541C924.3 541 888.7 541 853.2 541C817.7 541 782.3 541 746.8 541C711.3 541 675.7 541 640 541C604.3 541 568.7 541 533.2 541C497.7 541 462.3 541 426.8 541C391.3 541 355.7 541 320 541C284.3 541 248.7 541 213.2 541C177.7 541 142.3 541 106.8 541C71.3 541 35.7 541 17.8 541L0 541Z" fill="#246ec7"></path></svg>